<svg width="24" height="24" viewBox="0 0 24 24" fill="none" xmlns="http://www.w3.org/2000/svg">
<path fill-rule="evenodd" clip-rule="evenodd" d="M12.7655 3.49224C12.272 3.98636 12.272 4.7814 12.7655 5.27552L18.7029 11.2198C19.1965 11.7139 19.9906 11.7139 20.4841 11.2198L21.1521 10.5511C21.6456 10.0569 21.6456 9.26189 21.1521 8.76778L15.2147 2.82351C14.7212 2.32939 13.927 2.32939 13.4335 2.82351L12.7655 3.49224ZM2.82044 15.2322C2.3269 14.7381 2.3269 13.943 2.82044 13.4489L3.4884 12.7802C3.98194 12.286 4.77606 12.286 5.26961 12.7802L11.207 18.7244C11.7005 19.2186 11.7005 20.0136 11.207 20.5077L10.539 21.1764C10.0455 21.6706 9.25136 21.6706 8.75782 21.1764L2.82044 15.2322ZM16.8141 2.33683L16.5135 2.63776L21.3376 7.46748L21.6382 7.16655C22.128 6.67615 22.1169 5.86996 21.6233 5.37584L18.599 2.34798C18.1092 1.85757 17.3039 1.84643 16.8141 2.33683ZM13.7303 7.72753L7.71873 13.7461L10.2421 16.2724L16.2537 10.2538L13.7303 7.72753ZM5.37347 21.652L2.34912 18.6241C1.85558 18.13 1.84445 17.3238 2.33428 16.8334L2.63486 16.5325L7.45898 21.3622L7.1584 21.6631C6.66856 22.1535 5.86331 22.1424 5.37347 21.652Z" fill="white"/>
<mask id="mask0_11268_36525" style="mask-type:alpha" maskUnits="userSpaceOnUse" x="1" y="1" width="21" height="22">
<g opacity="0.49">
<g opacity="0.49">
<g opacity="0.49">
<g opacity="0.49">
<g opacity="0.49">
<path opacity="0.49" fill-rule="evenodd" clip-rule="evenodd" d="M12.7655 3.49224C12.272 3.98636 12.272 4.7814 12.7655 5.27552L18.7029 11.2198C19.1965 11.7139 19.9906 11.7139 20.4841 11.2198L21.1521 10.5511C21.6456 10.0569 21.6456 9.26189 21.1521 8.76778L15.2147 2.82351C14.7212 2.32939 13.927 2.32939 13.4335 2.82351L12.7655 3.49224ZM2.82044 15.2322C2.3269 14.7381 2.3269 13.943 2.82044 13.4489L3.4884 12.7802C3.98194 12.286 4.77606 12.286 5.26961 12.7802L11.207 18.7244C11.7005 19.2186 11.7005 20.0136 11.207 20.5077L10.539 21.1764C10.0455 21.6706 9.25136 21.6706 8.75782 21.1764L2.82044 15.2322ZM16.8141 2.33683L16.5135 2.63776L21.3376 7.46748L21.6382 7.16655C22.128 6.67615 22.1169 5.86996 21.6233 5.37584L18.599 2.34798C18.1092 1.85757 17.3039 1.84643 16.8141 2.33683ZM13.7303 7.72753L7.71873 13.7461L10.2421 16.2724L16.2537 10.2538L13.7303 7.72753ZM5.37347 21.652L2.34912 18.6241C1.85558 18.13 1.84445 17.3238 2.33428 16.8334L2.63486 16.5325L7.45898 21.3622L7.1584 21.6631C6.66856 22.1535 5.86331 22.1424 5.37347 21.652Z" fill="white"/>
</g>
</g>
</g>
</g>
</g>
</mask>
<g mask="url(#mask0_11268_36525)">
</g>
</svg>
